{"title":"Formula 1 2009 Round 14 Singapore Race","uid":9681766,"size":1984807367,"categoryP":"video","categoryS":"tv_shows","magnet":"?xt=urn:btih:9fdfbd1007bb3b3719f950105cfb65af4bea6df2&amp;dn=Formula+1+2009+Round+14+Singapore+Race&amp;tr=udp%3A%2F%2Ftracker.openbittorrent.com%3A80&amp;tr=udp%3A%2F%2Fopen.demonii.com%3A1337&amp;tr=udp%3A%2F%2Ftracker.coppersurfer.tk%3A6969&amp;tr=udp%3A%2F%2Fexodus.desync.com%3A6969","seeders":1,"leechers":4,"uploader":"totocon","files":1,"time":1393634175,"description":"Since Round 1 - 10 was uploaded a while ago (i am still seeding them),\nand some races are damaged, i just upload the working files i have atm.\nIf i can somehow recover the damaged races, i will upload asap.\n\nFormat                                   : Matroska\nFormat version                           : Version 4 / Version 2\nFile size                                : 1.85 GiB\nDuration                                 : 3h 5mn\nOverall bit rate                         : 1 430 Kbps\nEncoded date                             : UTC 2014-03-01 11:09:50\nWriting application                      : mkvmerge v6.3.0 ('You can't stop me!') built on Jun 27 2013 22:06:07\nWriting library                          : libebml v1.3.0 + libmatroska v1.4.0\n\nVideo\nID                                       : 1\nFormat                                   : MPEG-4 Visual\nFormat profile                           : Simple@L3\nFormat settings, BVOP                    : No\nFormat settings, QPel                    : No\nFormat settings, GMC                     : No warppoints\nFormat settings, Matrix                  : Default (H.263)\nCodec ID                                 : V_MS/VFW/FOURCC / XVID\nCodec ID/Hint                            : XviD\nDuration                                 : 3h 5mn\nBit rate                                 : 1 273 Kbps\nWidth                                    : 718 pixels\nHeight                                   : 570 pixels\nDisplay aspect ratio                     : 16:9\nOriginal display aspect ratio            : 16:9\nFrame rate mode                          : Constant\nFrame rate                               : 25.000 fps\nColor space                              : YUV\nChroma subsampling                       : 4:2:0\nBit depth                                : 8 bits\nScan type                                : Progressive\nCompression mode                         : Lossy\nBits/(Pixel*Frame)                       : 0.124\nStream size                              : 1.65 GiB (89%)\nWriting library                          : XviD 1.1.2 (UTC 2006-11-01)\nDefault                                  : Yes\nForced                                   : No\n\nAudio\nID                                       : 2\nFormat                                   : MPEG Audio\nFormat version                           : Version 1\nFormat profile                           : Layer 3\nMode                                     : Joint stereo\nMode extension                           : MS Stereo\nCodec ID                                 : A_MPEG/L3\nCodec ID/Hint                            : MP3\nDuration                                 : 3h 5mn\nBit rate mode                            : Constant\nBit rate                                 : 128 Kbps\nChannel(s)                               : 2 channels\nSampling rate                            : 44.1 KHz\nCompression mode                         : Lossy\nStream size                              : 169 MiB (9%)\nDefault                                  : Yes\nForced                                   : No\n\n","torrent":{"xt":"urn:btih:9fdfbd1007bb3b3719f950105cfb65af4bea6df2","amp;dn":"Formula+1+2009+Round+14+Singapore+Race","amp;tr":["udp%3A%2F%2Ftracker.openbittorrent.com%3A80","udp%3A%2F%2Fopen.demonii.com%3A1337","udp%3A%2F%2Ftracker.coppersurfer.tk%3A6969","udp%3A%2F%2Fexodus.desync.com%3A6969"],"infoHash":"9fdfbd1007bb3b3719f950105cfb65af4bea6df2","infoHashBuffer":{"type":"Buffer","data":[159,223,189,16,7,187,59,55,25,249,80,16,92,251,101,175,75,234,109,242]},"announce":[],"urlList":[]}}